<svg width="106" height="45" viewBox="0 0 106 45" fill="none" xmlns="http://www.w3.org/2000/svg">
<g clip-path="url(#clip0_2402_24207)">
<path d="M12.4864 12.2707H0V18.6632L7.03777 18.6551H12.4855C18.2481 18.6551 22.1372 22.6483 22.1372 28.3444V28.4372C22.1372 34.1306 18.2481 38.0355 12.4855 38.0355H7.04136V20.0931H0V44.4173H12.4864C22.549 44.4173 29.4998 37.3904 29.4998 28.3435V28.2507C29.4998 19.2038 22.5499 12.2698 12.4864 12.2698" fill="#0B46F8"/>
<path d="M92.3902 12.2994H85.9455L72.333 44.419H79.4569L82.1175 37.8706L92.3965 12.3166L92.3902 12.2994Z" fill="#0B46F8"/>
<path d="M93.1851 14.1736L89.8184 22.542L92.7553 29.741H92.7571L93.2838 31.0348L93.2964 31.0681L96.1661 38.1518L96.1535 38.1563L98.6957 44.4182H106L93.1851 14.1736Z" fill="#0B46F8"/>
<path d="M60.5896 26.1154V44.4173H67.5852V14.9728L67.5816 14.9827L60.5896 26.1154Z" fill="#0B46F8"/>
<path d="M42.4716 26.2928L35.5765 15.0214V44.4181H42.4797L42.4698 26.3009L42.4716 26.2928Z" fill="#0B46F8"/>
<path d="M67.5816 12.2761H67.5771V0L51.5813 25.8685L43.1652 12.2761H35.5756V12.295L42.4796 23.5781V23.5718L51.3973 37.1624H51.5813L60.5896 23.4331V23.4349L67.5816 12.3049L67.5861 12.295V12.2761H67.5816Z" fill="#0B46F8"/>
</g>
<defs>
<clipPath id="clip0_2402_24207">
<rect width="106" height="44.419" fill="white"/>
</clipPath>
</defs>
</svg>
